<svg width="40" height="40" viewBox="0 0 40 40" fill="none" xmlns="http://www.w3.org/2000/svg">
<mask id="mask0_4582_781" style="mask-type:alpha" maskUnits="userSpaceOnUse" x="0" y="0" width="40" height="40">
<path d="M0 8C0 3.58172 3.58172 0 8 0H32C36.4183 0 40 3.58172 40 8V32C40 36.4183 36.4183 40 32 40H8C3.58172 40 0 36.4183 0 32V8Z" fill="white"/>
</mask>
<g mask="url(#mask0_4582_781)">
<path d="M0 8C0 3.58172 3.58172 0 8 0H32C36.4183 0 40 3.58172 40 8V32C40 36.4183 36.4183 40 32 40H8C3.58172 40 0 36.4183 0 32V8Z" fill="#0051D2"/>
</g>
<path fill-rule="evenodd" clip-rule="evenodd" d="M35 20C35 28.2843 28.2843 35 20 35C11.7157 35 5 28.2843 5 20C5 11.7157 11.7157 5 20 5V12.0587C20 12.0587 19.9999 12.0587 19.9999 12.0587C15.6141 12.0587 12.0587 15.6141 12.0587 19.9999C12.0587 24.3857 15.6141 27.9411 19.9999 27.9411C24.3856 27.9411 27.941 24.3857 27.9411 20H35Z" fill="white"/>
<rect x="20" y="12.0586" width="7.94118" height="7.94118" fill="#14E0A1"/>
</svg>
