<svg width="48" height="48" viewBox="0 0 48 48" fill="none" xmlns="http://www.w3.org/2000/svg"><path fill-rule="evenodd" clip-rule="evenodd" d="M42.988 4.81415C43.0306 4.86441 43.0563 4.92697 43.0613 4.99278C43.0877 5.31552 45.4233 37.3313 23.6002 44.7878C23.5347 44.8103 23.4636 44.8103 23.398 44.7878C1.57567 37.3313 3.91123 5.31552 3.93695 4.99278C3.9422 4.92717 3.96786 4.86486 4.01029 4.81465C4.05273 4.76445 4.10979 4.72891 4.17343 4.71304L23.4251 0.00861373C23.4738 -0.00287124 23.5244 -0.00287124 23.573 0.00861373L42.8241 4.71304C42.888 4.72848 42.9454 4.7639 42.988 4.81415ZM39.4448 8.23253C39.4795 8.27324 39.5006 8.32385 39.5051 8.37725H39.5073C39.5287 8.64049 41.4392 34.7784 23.582 40.865C23.5296 40.885 23.4716 40.885 23.4192 40.865C5.56132 34.7784 7.47248 8.64049 7.49393 8.37725C7.49807 8.32385 7.51897 8.27309 7.55364 8.23238C7.5883 8.19168 7.63494 8.16303 7.68682 8.15057L23.4377 4.30758C23.4776 4.29755 23.5193 4.29755 23.5592 4.30758L39.3115 8.15057C39.3634 8.16318 39.41 8.19188 39.4448 8.23253Z" fill="%23798CE5"/><path d="M23.2759 10.0442L12.7734 12.6047C12.7388 12.6136 12.7078 12.6331 12.6847 12.6604C12.6617 12.6878 12.6477 12.7218 12.6448 12.7575C12.6312 12.9332 11.3574 30.3588 23.2609 34.417C23.2966 34.4284 23.3352 34.4284 23.3709 34.417C35.2745 30.3581 34.0014 12.9332 33.987 12.7568C33.9843 12.721 33.9704 12.6869 33.9471 12.6595C33.9239 12.6322 33.8926 12.613 33.8577 12.6047L23.3559 10.0435C23.3297 10.0365 23.3022 10.0365 23.2759 10.0435" fill="%23798CE5"/></svg>