<svg width="141" height="140" viewBox="0 0 141 140" fill="none" xmlns="http://www.w3.org/2000/svg">
<rect x="0.5" width="140" height="140" rx="4" fill="black"/>
<path fill-rule="evenodd" clip-rule="evenodd" d="M90.2944 33.5965C84.4931 30.5253 80.0893 25.1302 78.3506 18.6465C77.8143 20.629 77.5381 22.709 77.5381 24.854C77.5381 26.5277 77.7168 28.1527 78.0418 29.729C78.0418 29.729 78.0418 29.729 78.0418 29.7453C78.0418 29.7615 78.0581 29.794 78.0581 29.8103C78.4968 31.9228 79.2118 33.9215 80.1706 35.774C78.1231 34.2628 76.3031 32.459 74.7756 30.4278C72.7281 46.304 78.4968 62.8303 89.0431 73.7178C102.807 89.7403 90.1156 116.927 68.6656 116.212C38.3105 116.472 33.1105 71.7678 62.2306 64.7478L62.2143 64.6666C69.9818 62.1478 73.6218 57.094 74.2556 50.529C63.0431 59.6128 45.3305 48.3515 49.0031 34.2465C6.9155 54.9653 22.548 122.175 70.2581 121.347C91.0419 121.347 108.624 107.599 114.393 88.7003C121.283 66.6653 110.136 43.184 90.2944 33.5965Z" fill="#12FE74"/>
</svg>
