<svg xmlns="http://www.w3.org/2000/svg" id="svg3" width="154" height="36" fill="none" preserveAspectRatio="xMidYMid" version="1.1"><defs id="defs3"><clipPath id="clip0_77_13382"><path id="rect17" fill="#fff" d="M0 0h132v50H0z"/></clipPath></defs><g id="g17" clip-path="url('#clip0_77_13382')" transform="matrix(.71384 0 0 .71384 29.361 .297)"><path id="path1" fill="#fcc601" d="M15 5V0h20v5h5v5h5v5h5v20h-5v5h-5v5h-5v5H15v-5h-5v-5H5v-5H0V15h5v-5h5V5Z"/><path id="path2" fill="#fff15d" d="M10 10h5v5h-5z"/><path id="path3" fill="#fff15d" d="M35 10h5v5h-5z"/><path id="rect3" fill="#f8a700" d="M15 15h20v20H15z"/><path id="path4" fill="#c87b00" d="M10 35h5v5h-5Z"/><path id="path5" fill="#c87b00" d="M35 35h5v5h-5z"/><path id="path6" fill="#f8a700" d="M15 5h25v5H15Z"/><path id="path7" fill="#f8a700" d="M40 10h5v25h-5z"/><path id="path8" fill="#f8a700" d="M5 15h5v25H5z"/><path id="path9" fill="#f8a700" d="M10 40h25v5H10Z"/><path id="path10" fill="#e88f00" d="M45 15h5v20h-5z"/><path id="path11" fill="#e88f00" d="M40 35h5v5h-5z"/><path id="path12" fill="#e88f00" d="M35 40h5v5h-5z"/><path id="path13" fill="#e88f00" d="M15 45h20v5H15Z"/><path id="path14" fill="#000" d="M8.87 34.043h14.874V16.048h-6.126v14.525h-2.621v-3.805H8.87Z"/><path id="path15" fill="#000" d="M23.729 16.048h-6.182v17.995h6.182v-7.275h2.274v3.805h4.572v-3.805h2.274v7.275h6.182V16.048h-6.182v3.47h-2.274v3.78h-4.572v-3.78h-2.274Z"/><path id="path16" fill="#fff" d="M65.054 22.943h11.043V9.839h-4.548v10.576h-1.947v-2.752h-4.548v5.278zM81.958 9.84h-4.53v13.103h11.043L88.452 9.84h-4.529v10.575h-1.965Zm18.869 13.103v-7.825h-6.494v-2.752h6.494V9.84H89.803v7.824h6.494v2.752h-6.494v2.526h11.024zm9.137-10.576h3.219V9.84h-11.024v2.527h3.275v10.575h4.53zM69.373 27.118h-4.53V40.22h4.53v-5.278h1.665v2.752h3.35v-2.752h1.666v5.278h4.53v-13.1h-4.53v2.526h-1.666v2.751H71.04v-2.75h-1.666ZM81.915 40.22h11.043v-13.1H81.915Zm4.53-10.574h1.965v8.047h-1.966zm15.892-2.527v5.278h-1.665v-2.751h-1.853v-2.528h-4.53V40.22h4.53v-6.494h1.796v2.77h1.722v3.725h4.53V27.117h-4.53zm10.391 7.823h6.514v-2.546h-6.514v-2.75h6.514v-2.528h-11.043V40.22h11.043v-2.526h-6.514zm12.375-7.823h-4.53v6.55h3.22v6.551h4.548v-6.55h3.275v-6.55h-4.548v3.967h-1.965z"/><path id="path17" fill="#f8ba00" d="M115.128 22.883h4.473v-3.638h-4.473z"/></g></svg>