<svg xmlns="http://www.w3.org/2000/svg" width="483.203" height="200" class="icon" viewBox="0 0 2474 1024"><path fill="#2882FF" d="m1888.227 274.982-218.074 412.35h50.63a66.37 66.37 0 0 0 58.502-35.082l59.259-110.459h151.703a56.89 56.89 0 0 0 50.537-31.289l19.626-39.253h-184.32l65.043-121.268h277.523l-171.71 337.066h45.607a70.64 70.64 0 0 0 62.482-37.926l158.436-299.425h83.627a64.85 64.85 0 0 0 58.026-35.84l19.532-38.874zM723.332 763.562a106.7 106.7 0 0 1 27.781 3.035 52.15 52.15 0 0 1 18.963 8.533 32.46 32.46 0 0 1 10.525 13.37 46.2 46.2 0 0 1 3.128 17.445 32.9 32.9 0 0 1-1.517 10.145 29.9 29.9 0 0 1-4.74 9.482 36.7 36.7 0 0 1-8.344 7.774 53 53 0 0 1-12.231 6.163 44.47 44.47 0 0 1 23.04 12.232 31.86 31.86 0 0 1 7.49 21.902 45.9 45.9 0 0 1-3.887 18.963 43.14 43.14 0 0 1-11.473 15.075 53.7 53.7 0 0 1-18.963 10.05 79 79 0 0 1-25.22 3.604h-62.578V763.563zm-21.712 27.402v38.97h18.963a63.6 63.6 0 0 0 10.903-.854 24.9 24.9 0 0 0 8.25-3.034 14.4 14.4 0 0 0 5.214-5.974 21.8 21.8 0 0 0 1.802-9.481 27.2 27.2 0 0 0-1.423-9.482 13.27 13.27 0 0 0-4.361-5.973 17.7 17.7 0 0 0-7.396-3.224 49.6 49.6 0 0 0-10.619-.948zm25.695 102.685a33 33 0 0 0 12.23-1.802 19 19 0 0 0 7.112-4.74 15.74 15.74 0 0 0 3.603-6.638 28.4 28.4 0 0 0 .948-7.49 24.8 24.8 0 0 0-1.138-7.775 12.8 12.8 0 0 0-3.887-5.878 21 21 0 0 0-7.301-3.698 43.2 43.2 0 0 0-11.473-1.233h-25.79v39.254zm219.306-1.612v29.203h-94.815V763.563h36.599v128.474zm210.963-49.683a84.3 84.3 0 0 1-5.973 31.858 75.85 75.85 0 0 1-16.593 25.6 77.6 77.6 0 0 1-25.695 17.066 94.25 94.25 0 0 1-67.034 0 75.38 75.38 0 0 1-42.666-42.666 89.22 89.22 0 0 1 0-63.716 75.1 75.1 0 0 1 42.666-42.477 92.92 92.92 0 0 1 67.034 0 77.6 77.6 0 0 1 25.79 17.067 74.6 74.6 0 0 1 16.593 25.505 83.8 83.8 0 0 1 5.878 31.763m-37.926 0a69.2 69.2 0 0 0-3.034-21.049 44.8 44.8 0 0 0-8.249-15.36 36.9 36.9 0 0 0-13.938-9.481 47.4 47.4 0 0 0-18.963-3.509 47.4 47.4 0 0 0-18.962 3.509 36.9 36.9 0 0 0-13.559 9.481 43.3 43.3 0 0 0-8.723 15.834 74.9 74.9 0 0 0 0 42.193 43.5 43.5 0 0 0 8.723 15.834 36.9 36.9 0 0 0 13.938 9.955 49.2 49.2 0 0 0 18.963 3.414 48.7 48.7 0 0 0 18.963-3.414 36.9 36.9 0 0 0 13.937-9.955 44.8 44.8 0 0 0 8.723-15.834 69.4 69.4 0 0 0 2.655-21.618zm207.076 38.115a8.3 8.3 0 0 1 2.654 0 5.8 5.8 0 0 1 2.466 1.707l14.506 15.74a61.06 61.06 0 0 1-23.893 18.962 84.4 84.4 0 0 1-33.944 6.353 80.6 80.6 0 0 1-32.142-6.163A69.9 69.9 0 0 1 1232.583 900a74.15 74.15 0 0 1-15.17-25.505 92.9 92.9 0 0 1-5.31-32.142 89.6 89.6 0 0 1 5.688-32.427 75.9 75.9 0 0 1 16.119-25.505 73.4 73.4 0 0 1 24.557-16.403 83.1 83.1 0 0 1 31.953-5.973 85.3 85.3 0 0 1 16.687 1.612 78 78 0 0 1 14.696 4.361 65.4 65.4 0 0 1 12.516 6.637 64.7 64.7 0 0 1 10.24 8.439l-12.421 16.592a19 19 0 0 1-2.75 2.75 7.4 7.4 0 0 1-4.55 1.232 8.15 8.15 0 0 1-3.698-.853l-3.698-2.086-4.267-2.75a37 37 0 0 0-5.5-2.75 56 56 0 0 0-7.49-2.085 51.6 51.6 0 0 0-10.05-.853 41.4 41.4 0 0 0-16.592 3.318 36.4 36.4 0 0 0-12.99 9.482 46.3 46.3 0 0 0-8.439 15.739 70.5 70.5 0 0 0-2.939 21.428 63 63 0 0 0 3.319 21.523 46.5 46.5 0 0 0 8.912 15.834 37.9 37.9 0 0 0 13.274 9.482 40.7 40.7 0 0 0 16.214 3.318 68 68 0 0 0 9.481 0 38 38 0 0 0 7.68-1.612 31 31 0 0 0 6.732-3.034 39.4 39.4 0 0 0 6.447-4.835 17 17 0 0 1 2.75-1.802 7.4 7.4 0 0 1 2.75-.664m113.588-53.096h5.878a13.18 13.18 0 0 0 11.662-5.025l35.556-51.58a17 17 0 0 1 6.732-5.688 22.95 22.95 0 0 1 9.007-1.517h31.858l-46.744 63.715a32.2 32.2 0 0 1-10.714 9.482 23.7 23.7 0 0 1 7.396 4.172 32.9 32.9 0 0 1 6.352 7.016l47.408 73.197h-32.711a28.4 28.4 0 0 1-5.31 0 14.4 14.4 0 0 1-3.887-1.327 10 10 0 0 1-2.75-2.086 16.7 16.7 0 0 1-2.276-2.845l-35.745-54.898a10.15 10.15 0 0 0-4.93-4.266 20.7 20.7 0 0 0-8.06-1.328h-8.912v67.13h-36.598V763.562h36.598zm256.853 53.096a8.2 8.2 0 0 1 2.56 0 6.07 6.07 0 0 1 2.56 1.707l14.507 15.265a61.06 61.06 0 0 1-23.894 18.963 84.4 84.4 0 0 1-33.943 6.353 81.1 81.1 0 0 1-32.237-6.163 68.65 68.65 0 0 1-24.083-16.877 74.3 74.3 0 0 1-15.266-25.505 94.8 94.8 0 0 1-5.31-32.143 87.6 87.6 0 0 1 5.784-32.426 74.5 74.5 0 0 1 16.119-25.505 73.4 73.4 0 0 1 25.22-16.119 82.9 82.9 0 0 1 31.858-5.973 85.3 85.3 0 0 1 16.783 1.612 78 78 0 0 1 14.696 4.361 68.4 68.4 0 0 1 12.516 6.637 64 64 0 0 1 10.145 8.439l-12.326 16.592a15.7 15.7 0 0 1-2.845 2.75 7 7 0 0 1-4.55 1.232 8.06 8.06 0 0 1-3.604-.853c-1.232-.569-2.37-1.327-3.697-2.086l-4.267-2.75a42.4 42.4 0 0 0-5.5-2.75 56 56 0 0 0-7.49-2.085 52.3 52.3 0 0 0-10.05-.853 41.15 41.15 0 0 0-16.593 3.318 35.65 35.65 0 0 0-12.99 9.482 44.7 44.7 0 0 0-8.438 15.739 70.5 70.5 0 0 0-3.034 21.428 65.3 65.3 0 0 0 3.319 21.523 46.7 46.7 0 0 0 9.007 15.834 37.9 37.9 0 0 0 13.274 9.482 40.3 40.3 0 0 0 16.213 3.318 68 68 0 0 0 9.482 0 38 38 0 0 0 7.111-1.138 33.2 33.2 0 0 0 6.732-3.034 39 39 0 0 0 6.352-4.835 14.5 14.5 0 0 1 2.845-1.802 7.4 7.4 0 0 1 3.034-1.138m214.945-116.906V921.24h-36.788v-66.37h-64.38v66.37h-36.787V763.563h36.788v66.37h64.094v-66.37zm213.428 157.677h-28.444a11.95 11.95 0 0 1-7.68-2.181 13.75 13.75 0 0 1-4.457-5.689l-9.481-27.496h-59.733l-9.482 27.496a14.5 14.5 0 0 1-4.267 5.5 12.14 12.14 0 0 1-7.68 2.37h-28.444l61.06-157.677h37.927zm-58.121-60.302-14.697-43.141a245 245 0 0 1-3.413-9.482 323 323 0 0 1-3.698-12.136c-1.043 4.456-2.275 8.533-3.413 12.231s-2.465 7.016-3.508 9.482l-14.507 42.95zm148.67 60.302h-36.789V763.563h36.788zm209.635-157.677V921.24h-18.963a15.9 15.9 0 0 1-7.111-1.328 16.8 16.8 0 0 1-5.69-4.74l-74.334-94.057c0 2.845.474 5.594.569 8.154s0 5.12 0 7.49v84.48h-32.237V763.564h18.963a25.4 25.4 0 0 1 3.982 0 10.05 10.05 0 0 1 5.404 2.465c.986.92 1.897 1.896 2.75 2.94l74.998 94.814c0-3.034-.568-5.973-.758-8.818s0-5.499 0-8.059v-83.437zM484.968 61.365S429.407 5.803 363.89.778s-90.833 15.17-85.808 35.366 27.781 22.66 58.027 2.465 95.858-15.075 148.86 22.756"/><path fill="#2882FF" d="M457.661 69.613s-44.183-27.59-87.23-21.048c-43.045 6.542-56.888 23.324-50.156 35.555s21.333 10.525 37.926-7.016 59.543-23.988 99.46-7.49"/><path fill="#2882FF" d="M450.835 76.63a95.67 95.67 0 0 0-58.027-.759c-26.264 10.145-32.237 22.661-26.548 29.488s14.886 3.697 22.85-9.482c7.965-13.18 34.228-24.083 61.725-19.247m137.481 163.84c49.968-21.428 85.333-30.341 184.13-7.585 0 0-141.179-237.037-312.888-156.445-62.957 32.806-67.982 103.728-73.008 128.664s1.802 110.175-65.611 151.703c-90.738 55.183-398.507 145.73-302.65 665.6 0 0 10.051-136.249 191.716-171.52 181.665-35.27 252.208-25.22 343.04-126.103s50.442-292.599 30.246-348.16-30.246-120.605 5.025-136.154m-127.43 422.494c-38.875 74.335-120.131 62.957-155.687 63.431-19.532 0-67.887-10.903-112.734 2.466-54.709 16.308-64.759 38.59-81.636 54.897 0 0 7.396-104.296 68.551-189.63s154.453-114.44 215.893-93.392c61.44 21.05 104.486 87.799 65.612 162.228M711.954 202.64s-98.418-12.99-136.25 24.936c0 0 30.342-85.333 136.25-24.936m944.734 110.27-130.18 246.518-32.996-284.445h-56.036a68.08 68.08 0 0 0-60.112 36.314l-132.741 252.587-26.453-266.62a22.376 22.376 0 0 0-22.566-22.28H906.609a191.5 191.5 0 0 0-45.226 7.774 146.4 146.4 0 0 0-47.977 24.083 120.4 120.4 0 0 0-33.28 39.917 118.7 118.7 0 0 0-12.136 55.372 92.35 92.35 0 0 0 13.274 53.001 105.34 105.34 0 0 0 34.134 31.763 199.8 199.8 0 0 0 44.278 18.963c15.929 4.741 30.72 9.548 44.373 14.412a127.6 127.6 0 0 1 34.608 17.92 33.19 33.19 0 0 1 13.558 28.445 31.95 31.95 0 0 1-5.31 18.299 41.8 41.8 0 0 1-14.316 12.42 69.7 69.7 0 0 1-18.963 7.49c-3.907.883-7.87 1.556-11.852 1.992h-21.428l-132.741-1.138a70.64 70.64 0 0 0-63.052 37.926l-23.135 43.994H901.3a211 211 0 0 0 43.52-7.3 142.2 142.2 0 0 0 48.26-23.894 114.8 114.8 0 0 0 32.901-40.486 125.5 125.5 0 0 0 12.231-56.889 100.12 100.12 0 0 0-13.274-54.897 104.3 104.3 0 0 0-33.564-32.712 178.4 178.4 0 0 0-43.52-18.962q-23.325-6.642-43.52-13.37a123.3 123.3 0 0 1-33.47-16.023 31.2 31.2 0 0 1-13.369-27.117 31.57 31.57 0 0 1 5.594-18.963 39.6 39.6 0 0 1 14.317-12.42 74.2 74.2 0 0 1 18.963-7.017 100 100 0 0 1 10.335-1.707h234.572l39.348 329.671h88.178l151.703-284.444 33.09 284.444h92.635l216.272-410.548h-43.235a70.73 70.73 0 0 0-62.578 37.926"/></svg>