<svg xmlns="http://www.w3.org/2000/svg" xml:space="preserve" id="svg1" width="610" height="174" version="1.1" viewBox="0 0 161.396 46.038"><g id="layer1"><g id="g1" transform="matrix(.4771 0 0 .4771 34.355 -20.184)"><path id="path1" fill="#c53831" d="M-28.707 53.181h1.819l1.819.496 1.653.993 1.323 1.488.827 1.819.165.661v3.142l2.812 1.654 4.3 2.48 3.472 1.985 4.134 2.48.827-.165 1.323-.992 1.819-.662h2.48l1.654.496 1.488.992 1.323 1.489.827 1.819.165.661v2.315l-.496 1.654-1.157 1.819-1.82 1.323-1.157.496H.397l.165 17.694 1.489.661 1.653 1.323 1.158 1.654.661 1.819v2.15l-.496 1.488-.827 1.488-1.157 1.323-2.315 1.158-1.489.165H-2.58l-1.984-.827-.827-.661-.496-.496-.827.165-3.142 1.82-8.599 4.96-2.81 1.654.164.827v2.48l-.661 1.819-.992 1.488-1.323 1.158-1.323.661-1.323.331h-1.984l-2.15-.661-1.323-.993-1.323-1.488-.661-1.323-.331-1.488v-1.158l.165-1.488-4.134-2.315-3.969-2.315-4.299-2.48-2.811-1.654-1.158.992-1.819.827-.661.165h-2.315l-1.654-.496-1.488-.992-1.323-1.323-.827-1.82-.33-2.314.33-1.82.827-1.487.992-1.323 1.654-.993 1.323-.661V81.789l-1.985-.992-1.323-.992-.992-1.488-.661-1.654-.166-2.15.827-2.646.992-1.322 1.654-1.158 1.488-.661.827-.166h2.15l1.819.662 1.323.826.496.497 2.315-1.323 8.599-4.961 3.472-1.985.827-.496-.165-2.646.496-1.819.992-1.653 1.323-1.323 1.654-.827zm5.622 11.245.165.661 2.48 4.465 1.655 2.812L-6.383 93.86l2.315 3.969 1.158 1.653h.165V81.624l-1.654-.662-1.488-1.157-.992-1.488-.662-1.654-.165-1.984.165-1.323-2.48-1.489-4.63-2.645-3.97-2.315-3.472-1.985-.661-.496zm-9.591 0-2.811 1.654-8.103 4.63-3.969 2.315-.496.496.165.827v2.15l-.661 1.819-1.323 1.819-1.654.992-1.323.661v17.529h.497l1.322-2.15 7.442-12.898 1.654-2.811 2.645-4.63 2.315-3.97 2.646-4.63 1.82-3.142.165-.496zm3.142 1.82-1.158 1.653-1.819 3.307-1.653 2.811-2.315 3.969-12.403 21.497-.827 1.489 1.323 2.15.496 1.322H-7.87l.496-.496 1.157-2.315.331-.496-.165-.827-1.489-2.48-9.922-17.198-2.315-3.969-2.48-4.3-2.646-4.63-.992-1.488-2.646.165zM-47.89 107.42l-.165.33 2.48 1.489 3.804 2.15 4.3 2.48 3.968 2.315.992.496 1.489-1.157 1.819-.662 1.653-.165 1.985.33 1.653.827.827.827.992-.165 2.811-1.654 3.97-2.315 3.472-1.984 4.3-2.48v-.497l-3.308-.165z" style="stroke-width:.165365px"/><path id="path2" fill="#50a8f8" d="M208.59 72.86h3.97l2.81.496 2.481.827 2.646 1.488 1.984 1.819 1.489 1.653 1.488 2.646.992 2.812.662 3.638.165 2.645-.165 2.977-.827 4.134-.992 2.48-.992 1.82-1.654 2.15-.827.826.165.827 1.985 2.646 1.323 1.819v.33h.33l.331.662-.165.165h-6.284l-.827-.827-1.819-2.48-1.323.165-2.811.496h-4.465l-2.811-.496-2.646-.992-1.984-1.157-1.82-1.489-1.653-1.819-1.488-2.48-.992-2.48-.662-2.646-.33-3.308v-2.315l.33-3.307.662-2.811 1.157-2.646 1.158-1.985 1.488-1.819 1.488-1.322 2.15-1.323 1.819-.827 2.315-.662zm.993 6.118-1.654.33-1.653.662-1.489 1.158-1.322 1.488-1.323 2.646-.662 2.48-.165 1.323v3.97l.496 2.645.827 2.315 1.157 1.82 1.654 1.653 2.15 1.157 1.653.331h2.315l.827-.165-.165-.662-2.315-3.142-1.323-1.653-.165-.497 6.449.166 1.653 1.984.496.827.827-.827.992-1.984.662-2.15.165-.992.166-3.307-.331-3.473-.992-2.977-1.489-2.315-1.157-1.157-2.646-1.323-1.819-.33z" style="stroke-width:.165365px"/><path id="path3" fill="#4fa8f8" d="M158.982 73.686h5.787l.827.827 2.315 3.142 1.654 2.315 8.599 11.907 2.315 3.141.827.662V73.852l.165-.166h6.45l.33.166v34.23l-.33.166h-5.623l-1.488-1.82-10.75-14.882-1.653-2.315-1.984-2.646-.662-.496v21.993l-.165.166h-6.614l-.166-34.396z" style="stroke-width:.165365px"/><path id="path4" fill="#50a8f8" d="M134.838 72.86h3.804l2.315.33 2.976.993 2.48 1.322 2.316 1.985 1.819 2.315 1.323 2.646.827 2.48.496 2.646.165 1.323v3.969l-.496 3.638-1.158 3.472-1.157 2.15-1.488 1.985-1.489 1.488-1.653 1.157-2.646 1.323-2.315.662-2.15.33h-4.63l-2.977-.661-1.819-.661-2.15-1.158-1.488-1.158-1.984-1.984-1.488-2.315-1.158-2.646-.661-2.646-.331-2.15V88.24l.496-2.977.827-2.646 1.323-2.646 1.653-2.15 1.654-1.653 2.646-1.654 2.48-.992 2.15-.496zm.992 6.118-2.315.496-1.819.992-1.323 1.158-1.157 1.654-.827 1.819-.661 2.15-.331 2.48v2.646l.496 3.142.992 2.645 1.158 1.82 1.323 1.322 2.48 1.323 1.654.331h2.48l1.488-.33 2.316-1.158 1.819-1.82 1.157-1.984.827-2.646.33-2.15v-3.637l-.33-2.315-.661-2.15-.993-1.984-1.488-1.654-1.158-.992-1.819-.827-1.984-.33z" style="stroke-width:.165365px"/><path id="path5" fill="#50a8f8" d="M88.867 73.686h13.394l3.308.166 1.984.33 2.646.993 2.15 1.488 1.323 1.488.826 1.323.827 2.48.166 1.158v3.142l-.496 2.315-1.323 2.646-1.654 1.82-2.315 1.322h-.33l1.322 2.646 2.977 5.622 2.645 4.961.166.662h-7.938l-.992-1.489-2.646-5.291-1.653-3.142-1.158-2.315v-.331h-6.118l.165.496-.165 11.906-.166.166h-6.945l-.165-34.396Zm7.276 5.623-.165.827v10.087l.165.165h6.78l2.315-.496 1.654-1.157.826-1.323.331-.992.166-1.654-.331-1.984-.992-1.654-.993-.827-1.488-.661-2.15-.331z" style="stroke-width:.165365px"/><path id="path6" fill="#50a8f8" d="M55.96 73.686h23.812l3.969.166v5.622l-.166.166-10.087.165-.165 28.277-.166.166h-6.945l-.165-.166V79.64H55.794v-5.788z" style="stroke-width:.165365px"/><path id="path7" fill="#4fa8f8" d="M232.9 73.686h6.118l.992.166v28.443h15.214l.165.165v5.622l-.165.166h-22.325l-.165-.166v-34.23Z" style="stroke-width:.165365px"/></g></g></svg>